<?xml version="1.0" encoding="utf-8"?>
<!-- Generator: Adobe Illustrator 15.1.0, SVG Export Plug-In . SVG Version: 6.00 Build 0)  -->
<!DOCTYPE svg PUBLIC "-//W3C//DTD SVG 1.1//EN" "http://www.w3.org/Graphics/SVG/1.1/DTD/svg11.dtd">
<svg version="1.1" id="Layer_1" xmlns="http://www.w3.org/2000/svg" xmlns:xlink="http://www.w3.org/1999/xlink" x="0px" y="0px"
	 width="16px" height="16px" viewBox="0 0 16 16" enable-background="new 0 0 16 16" xml:space="preserve">
<g>
	<path fill="#FFFFFF" d="M7.723,11.119c0.019,0.037,0.077,0.076,0.125,0.076l0,0h0.077l0,0c0.047,0,0.133,0,0.181,0l0,0h0.076l0,0
		c0.048,0,0.105-0.039,0.125-0.076l0,0L9.67,7.647l0,0c0.085-0.181,0.152-0.171,0.152,0.027l0,0v2.128l0,0
		c0,0.209-0.115,0.373-0.248,0.373c-0.135,0-0.238,0.162-0.238,0.371l0,0v0.877h2.318v-0.629l0.01-0.248l0,0
		c0-0.209-0.114-0.371-0.249-0.371c-0.114,0-0.201-0.105-0.238-0.248l0,0V6.387c0-0.2,0.095-0.362,0.238-0.362
		c0.135,0,0.249-0.171,0.249-0.372l0,0V4.68H9.555L7.981,8.458L6.407,4.68H4.28v0.974l0,0c0,0.2,0.104,0.372,0.238,0.372
		c0.143,0,0.248,0.162,0.248,0.362l0,0v3.416l0,0c0,0.209-0.105,0.373-0.248,0.373c-0.134,0-0.238,0.162-0.238,0.371l0,0
		l-0.01,0.877h2.327v-0.877l0,0c0-0.209-0.105-0.371-0.238-0.371c-0.133,0-0.248-0.164-0.248-0.373l0,0V7.674l0,0
		c0-0.199,0.067-0.208,0.153-0.027l0,0L7.723,11.119L7.723,11.119z"/>
	<path fill="#FFFFFF" d="M7.999,0.377c4.198,0,7.623,3.425,7.623,7.622c0,4.198-3.425,7.624-7.623,7.624
		c-4.196,0-7.621-3.426-7.621-7.624C0.378,3.802,3.803,0.377,7.999,0.377L7.999,0.377z M7.999,1.895
		C4.642,1.895,1.895,4.632,1.895,8c0,3.358,2.748,6.106,6.104,6.106c3.368,0,6.106-2.748,6.106-6.106
		C14.105,4.632,11.367,1.895,7.999,1.895z"/>
</g>
</svg>
